/* XPM */
static char *cf93bf88e5b24f13fab8ca5ebde35647[] = {
/* columns rows colors chars-per-pixel */
"16 16 20 1 ",
"  c #CE8300",
". c #CE8400",
"X c #CF8500",
"o c #D08D27",
"O c #D49641",
"+ c #D79F56",
"@ c #DBA869",
"# c #DEB079",
"$ c #E1B788",
"% c #E4BF96",
"& c #E6C6A4",
"* c #EACEB0",
"= c #EDD5BC",
"- c #F0DCC8",
"; c #F3E3D3",
": c #F6EADE",
"> c #F7F0E9",
", c #FAF7F3",
"< c #FDFDFD",
"1 c None",
/* pixels */
"1..............1",
" ......O+.......",
"......$,<>%=+...",
".....$-%*,<*....",
"....@:...+:.....",
"....;,%@%:*&$o..",
"..O>:<<<<<<<<,O.",
"..=:+@@**#@@:<=.",
"..-<<>,<<<<>O<-.",
"..o=;;,;=&:<#<@.",
"..o#&-$..o:;**..",
".#<<<<<>*>%=-o..",
".-&o+-<<<<>$....",
".@=&-%OO%$......",
"............... ",
"1..............1"
};
