/* XPM */
static char *_2c3ed4d2d3a4d308b1de795b7fd4951[] = {
/* columns rows colors chars-per-pixel */
"64 64 24 1 ",
"  c #CD8300",
". c #CE8200",
"X c #CD8500",
"o c #CE8400",
"O c #CF8400",
"+ c #CF8500",
"@ c #CD8600",
"# c #D08D27",
"$ c #D49641",
"% c #D79F56",
"& c #DBA869",
"* c #DEB079",
"= c #E1B788",
"- c #E4BF96",
"; c #E6C6A4",
": c #EACEB0",
"> c #EDD5BC",
", c #F0DCC8",
"< c #F3E3D3",
"1 c #F6EADE",
"2 c #F7F0E9",
"3 c #FAF7F3",
"4 c #FDFDFD",
"5 c None",
/* pixels */
"55555.oooooooooooooooooooooooooooooooooooooooooooooooooooo.55555",
"5555oooooooooooooooooooooooooooooooooooooooooooooooooooooooo5555",
"555ooooooooooooooooooooooooooooooooooooooooooooooooooooooooooo55",
"55oooooooooooooooooooooooooooooooooooooooooooooooooooooooooooo55",
"5oooooooooooooooooooooooooooooooooooooooooooooooooooooooooooooo5",
"Oooooooooooooooooooooooooooooooooooooooooooooooooooooooooooooooo",
"oooooooooooooooooooooooooooooooooooooooooooooooooooooooooooooooo",
"oooooooooooooooooooooooooooooooooooooooooooooooooooooooooooooooo",
"oooooooooooooooooooooooooooooooooooooooooooooooooooooooooooooooo",
"oooooooooooooooooooooooooooooo#>=ooooooooooooooooooooooooooooooo",
"ooooooooooooooooooooooooooooo*3443>*ooooooooo&%ooooooooooooooooo",
"oooooooooooooooooooooooooooo:44444443:%ooooo&4:ooooooooooooooooo",
"oooooooooooooooooooooooooo#<444444444442;$o#33#ooooooooooooooooo",
"ooooooooooooooooooooooooo%3444444444444444114*oooooooooooooooooo",
"oooooooooooooooooooooooo=342<;<1444444444444:ooooooooooooooooooo",
"ooooooooooooooooooooooo=41&ooooo#*>444444441oooooooooooooooooooo",
"oooooooooooooooooooooo=4>oooooooooo#;344443$oooooooooooooooooooo",
"ooooooooooooooooooooo=4<ooooooooooooo#;344&ooooooooooooooooooooo",
"oooooooooooooooooooo%44&ooooooooooooooo;4;oooooooooooooooooooooo",
"ooooooooooooooooooo#243ooooooooooooooo&4<ooooooooooooooooooooooo",
"ooooooooooooooooooo:442oooooooooooooo#23#ooooooooooooooooooooooo",
"oooooooooooooooooo$4444$ooooooooooooo,4%oooooooooooooooooooooooo",
"oooooooooooooooooo:44441#ooooooooooo-4-o#&&&&ooooooooooooooooooo",
"oooooooooooooooooo<444442:*&&&-;;:<<44444444442>=#oooooooooooooo",
"oooooooooooooooo=244444444444444444444444444444443:#oooooooooooo",
"oooooooooooooo&2412444444444444444444444444444444443%ooooooooooo",
"ooooooooooooo=441#;4444444444444444444444444444444443%oooooooooo",
"oooooooooooo%344$o#14444444444444444444444444444444443#ooooooooo",
"oooooooooooo<44<oooo=,24444441<,42*&$oooooo$*>44444444>ooooooooo",
"ooooooooooo%444<ooooooooooooooo,4%oooooooooooo$,4444444#oooooooo",
"ooooooooooo-4444%ooooooooooooo-4-ooooooooooooooo=444444&oooooooo",
"ooooooooooo;44443;#oooooooooo%4,$&&=;;;;;;;%ooooo,44444-oooooooo",
"ooooooooooo;4444444<>;;;;;;<<2444444444444441%ooo$44444-oooooooo",
"ooooooooooo%4444444444444444444444444444444443#ooo14444&oooooooo",
"oooooooooooo:444444444444444444444444444444444>ooo<4444#oooooooo",
"ooooooooooooo<44444444444444444444444444444444<ooo<444<ooooooooo",
"ooooooooooooo#:34444444444444444444<<<:2444444<ooo1444=ooooooooo",
"ooooooooooooooo#*;<<441<<44:;-&&$ooooooo=44444,oo$4442oooooooooo",
"oooooooooooooooooooooooo=4;oooooooooooooo44444&oo;444&oooooooooo",
"ooooooooooooooooooooooo%3<oooooooooooooo$4444>oo#344;ooooooooooo",
"oooooooooooooooooooooo#13#ooooooooooooo#1444>ooo,44,oooooooooooo",
"oooooooooooo$;<344444114;#oooooooooooo$1443-ooo=441#oooooooooooo",
"oooooooooo#>444444444444441;%oooooooo-344,$ooo=441#ooooooooooooo",
"ooooooooo%34444444444444444442;$ooo=244<&oooo;44>ooooooooooooooo",
"oooooooo%344444444444444444444441;244>$oooo#,43=oooooooooooooooo",
"oooooooo<44442<<<<444444444444444444>*#ooo*34<$ooooooooooooooooo",
"ooooooo$444<$oooooo$*:24444444444444444<-<43-ooooooooooooooooooo",
"ooooooo&442#ooooooooooo$-14444444444444444>#oooooooooooooooooooo",
"ooooooo%44:oooooooooooo*>442244444444444,$oooooooooooooooooooooo",
"oooooooo<42#oooooooo*:244,*oo%:2444444<&oooooooooooooooooooooooo",
"oooooooo%243:=&&-;<444,=#ooooooo%>34>&oooooooooooooooooooooooooo",
"ooooooooo#;2444444<:*#ooooooooooooo$oooooooooooooooooooooooooooo",
"oooooooooooo#&&&#ooooooooooooooooooooooooooooooooooooooooooooooo",
"oooooooooooooooooooooooooooooooooooooooooooooooooooooooooooooooo",
"oooooooooooooooooooooooooooooooooooooooooooooooooooooooooooooooo",
"oooooooooooooooooooooooooooooooooooooooooooooooooooooooooooooooo",
"oooooooooooooooooooooooooooooooooooooooooooooooooooooooooooooooo",
"oooooooooooooooooooooooooooooooooooooooooooooooooooooooooooooooo",
"oooooooooooooooooooooooooooooooooooooooooooooooooooooooooooooooo",
"5oooooooooooooooooooooooooooooooooooooooooooooooooooooooooooooo5",
"55oooooooooooooooooooooooooooooooooooooooooooooooooooooooooooo55",
"555ooooooooooooooooooooooooooooooooooooooooooooooooooooooooooo55",
"5555oooooooooooooooooooooooooooooooooooooooooooooooooooooooo5555",
"55555oooooooooooooooooooooooooooooooooooooooooooooooooooooo55555"
};
