/* XPM */
static char *_____________[] = {
/* columns rows colors chars-per-pixel */
"64 64 26 1 ",
"  c #DF8200",
". c #E28400",
"X c #E38500",
"o c #E48400",
"O c #E58500",
"+ c #E68500",
"@ c #E48600",
"# c #E68600",
"$ c #E78600",
"% c #E68E14",
"& c #E89737",
"* c #EBA04F",
"= c #EDA962",
"- c #EEB175",
"; c #F0B885",
": c #F1C093",
"> c #F3C8A2",
", c #F4CFAF",
"< c #F6D7BC",
"1 c #F7DEC8",
"2 c #F9E5D3",
"3 c #FAECDF",
"4 c #FCF2EA",
"5 c #FDF9F5",
"6 c white",
"7 c None",
/* pixels */
"7777777@+++++@++++.+++.@++.@.@++.@+++@++@++.@++++++++++++7777777",
"77777+@@++@.+.++++@+@.++++++++++++@.+.++.++++++@.@.++@.@@@@77777",
"777@++.++@++.+.@.@+@++.++++++++++@++.+.@+++++++.@.@++.@.+++@.777",
"77.@++@++.++@++++++.++@+++@.@.+++.++@++++@.+.@+++++++++++++.+.77",
"77+++@++++.+++.@.@+++@++.@++++.@++.+++.@++++++@.+++.@+++++.+@+77",
"7@+@@+@.++@++++++++++.++++@.@.++++@++++++@.@.+++.++++++@++@+@++7",
"7@@+++++.@++++++++++++.@+@++++.+.@+++++++.@.@+++@++++++..@++++@7",
".@+@++++++@.++@.@.++@.+++.++++@+++@.++@.+++++++@++.@.@+++++++@+@",
".@++++.+++.@++.@.@++.@++++@..++*&++.@++.@++.@++.+@++++.+++.@++.@",
"@.++++@+@.++++++++++++@..+++@+,662;%.++++++@.++++.++++@+@.++++++",
"++.@.@++++.++++++++++@++@+++&36666661-++++++++-5*+.@.@++++.+++++",
"++++++@.++@+++@.@.+++.+++++-56666666665<=@.++*55%+++++@.++@+++@.",
"+@++.@+++@++.++++++@++.++.,666666666666664,*%36-.+++.@+++@++.+++",
"+.+++++++.++@+@.@.+.++@+%166666666666666666656<@@+@.+++++.++@+@.",
".+.@++++++.@+@++++.+.@+%3651>>>,36666666666663%.+@++++++++.@+@++",
"@+++@.++@.+++.++++@+++*56>%@+@.+@%;2666666665&+++.++@.++@.+++.++",
"++++.++++.@++.@++++++*55*++.@+++++.+*<666666-+@.+@++@++.@+++++++",
"++++@+@.+++++@.+.++@%56=@.+++++@++@+@.&<666,+++++.++.++++++@.@.+",
".++@+@++@++++.@+@++%362.++.++++..@++++++>63+.@++.+.@+++++++.@.@+",
"@++.+.++.++@++++++.<66-@++@+.@++++@.+++&55%++++@@++++@.+.@++++++",
".++@+@++@++.+++++@-666=+++.+@.+++@++.@+36=@+@++.+++++.@+++@.+.@+",
"@++.+.++.++++@.++.4666-+++@++++@+.++++,6>.++.++++++@+@.+.+++++++",
"++++.+.@+++++.@++;66662+.@+++++..+.@+-62+@+.+++@.++.+.@+@++++++.",
"++++@++++@.++@.++1666661%++@.+++@+++=55->>>,2>>-*@+++++++++@.++@",
".+++++.++@++++++&566666662,>>122266666666666666665<=++.++.@++.@+",
"@+@.++@++.++@@=26666666666666666666666666666666666662=@++@.+++++",
"+@++.@+@++.@%16615666666666666666666666666666666666666>++.@++++.",
"+.+++++..++%366<.,6666666666666666666666666666666666666,++++.++@",
"++.@++++@++1664@@%36666666666666666666666666666666666666-@++@++.",
"@.++++++++-666;.++%>366666666662561;==&++++.*-<5666666665%.++++@",
"++.+.++@+@3666;++@++.+&=====+@+=62++++++@+++++@%>56666666;@+++++",
"++@+@++..%66662++.++@+++.@+++.%55%@.++@..++@.+.++&36666661.++@.+",
"++@.@.+++=66666<.+++.++@++.++@26=@@@+++*==*++.+++@&5666663++++++",
".++++++@.=6666664,=%@++.++@*=,63,223666666663>%@+.+;666666+@.@.+",
"@++++++.@&6666666666666666666666666666666666664*+@+%566662+.@.@+",
"+++@.+++++36666666666666666666666666666666666663+.++266661++++++",
"+++++++++@=6666666666666666666666666666666666666-+@+,6666;@.+.@+",
".@.++@.@+.+;666666666666666666666666666666666666>+.+16666&++++++",
"@.@++.@.++++*1666666666666666666666321>>46666666>@++36661@+++++.",
"+++++++++@.+++%;,2466632365>,;==*+++@.+++-666666-.+&6666*@+@.++@",
"+++.@++.+++++++.@++.@++.26=.@++++++++++++.466664++.>666,@@++.+++",
".++++++@+@.@.+++++++++@>6>+++++@.@.++@.@++46666-+@%5663%++++@+@.",
"@++++++++.@.@#@++.@+++*62+.++++.@.@++.@.@>6666;++.,665*++++@+@++",
"++.@+@.+++++*;,3222,>-45%+@+.@++++++++++;6665;+@@;666*+++++.+.++",
"++@.+++++%>56666666666652>*++@+++++.@+%16661&+@@*565;+++.++@+@++",
".+++.@.+-5666666666666666665<-.+.+++#;5662=+++@-565*++.@@++.+.++",
"@+++++@;66666666666666666666665,*@%;5662=@@+.@;663&+.@+@++++.+.@",
"+++@.+-666666666666666666666666664566<=+@@++%166,%+++++.++++@+++",
"++++.@466663,>>>1266666666666666666651;&+++-564=.+++++.+++.@++.@",
".@.++=6663&+++.+@.+*;15666666666666666664,266>%+@+@.++@+@.++++++",
"@.@++=665*+@@.@+++++#@@-<5666666666666666662&++++@++.@+@++.+++++",
"+++++=661++.+++++.+.@@%;266456666666666662=+@.@.+.+++++.++@+++@.",
"++@+++465%@@+.@+.+++-<6661-++-<566666664;+++.@++++.@+++++@++.+++",
".+.+.+=664;&+++&=>26663;&@@.+++%;16662;+.@.+++++@.+++++++.++@+@.",
"@.@+@++*466666666652;&++@+++.++@@@&;=+++@.@+++++++.+.++@++.@+@++",
"++++++.@@*;>11>>-*+@@@@o@+++@++.@@@@+@.+++++@.++++@+@++.@.+++.++",
"+@++++++@@+.@++.++o+o@+++@+@+@+@+@++o+o@++.+++.@.++@+@++++++.++.",
"7@+++@.++++++++@@o@+++@o+o+o+o+o@+@o@+++++@+@.++@++.+.++++++@+@7",
"7+@++.@++++++++++++@o+o+o@++o@+++++++@o@.@+@++.+++++++.@.++@@+@7",
"77@++@.+++.@+@.+@o+o@+@+++@o++@o+++++o+++++.++@+++++@.++@++.+@77",
"77 @++++@.++++++++o++@+@o+o@++o++@+@o+o@.@+++@++.+++++.++++@+.77",
"777@@@+++++@.@.+@o@++o+o@+++@o@++o+o@++++++++.++@+@.++@++@+@+777",
"77777@+++++.@.@++++@o@+++@o@+++@o@+++@o@++++++.@+@++.@++++@77777",
"7777777@.+++++++@o+o++@o+o++@o+o++@o+o++@.++@.+++.+++++@@7777777"
};
