/* XPM */
static char *_2ef92f641da44e8ffa16c4215a8fc93[] = {
/* columns rows colors chars-per-pixel */
"32 32 27 1 ",
"  c #CB8300",
". c #CE8300",
"X c #CF8300",
"o c #CC8400",
"O c #CD8500",
"+ c #CE8400",
"@ c #CF8400",
"# c #CF8500",
"$ c #CD8600",
"% c #D08500",
"& c #D08D27",
"* c #D49641",
"= c #D79F56",
"- c #DBA869",
"; c #DEB079",
": c #E1B788",
"> c #E4BF96",
", c #E6C6A4",
"< c #EACEB0",
"1 c #EDD5BC",
"2 c #F0DCC8",
"3 c #F3E3D3",
"4 c #F6EADE",
"5 c #F7F0E9",
"6 c #FAF7F3",
"7 c #FDFDFD",
"8 c None",
/* pixels */
"888+++++++++++++++++++++++++$888",
"8++++++++++++++++++++++++++++++8",
"+++++++++++++++><=++++++++++++++",
"o++++++++++++&27775,*++*6+++++++",
"++++++++++++=577777774>4<+++++++",
"+++++++++++-64,257777774++++++++",
"++++++++++:7;++++*,6776*+++++++o",
"o++++++++=7<+++++++&<7;+++++++++",
"++++++++&57&++++++++4<++++++++++",
"o+++++++,77-+++++++<3+++++++++++",
"++++++++6774;*=--;<7<133<:&+++++",
"o+++++;477777777777777777771&+++",
"o++++,73277777777777777777774+++",
"o+++*75&&4777777753,,,,267777<++",
"o+++276&+++*-*+-6&++++++&37777++",
"++++6771*+++++&6,-,,,,,=++1777*+",
"++++37777743777777777777>+&777-+",
"o+++:77777777777777777774++777*+",
"o++++:4777777777763347777*+673++",
"o++++++*->,:7>-++++++>774+-77-++",
"o++++++++++3<++++++++177=+37,+++",
"$+++-<333347-+++++++<76;+>71++++",
"o+&277777777761;++-57<&+,71+++++",
"++27777777777777657<&+&26:++++++",
"+*77<;&=-,37777777774<63*+++++++",
"o+61+++++++:6777777775-+++++++++",
"o+15;++=:164>&&:4775:+++++++++++",
"++&157742>*++++++*-+++++++++++++",
"++++++++++++++++++++++++++++++++",
"8+++++++++++++++++++++++++++++++",
"8++++++++++++++++++++++++++++++8",
"88+o+o+++%+++++++++++++%$%++++88"
};
