/* XPM */
static char *_____________[] = {
/* columns rows colors chars-per-pixel */
"16 16 21 1 ",
"  c #E38500",
". c #E58500",
"X c #E68500",
"o c #E68600",
"O c #E68E14",
"+ c #E89737",
"@ c #EBA04F",
"# c #EDA962",
"$ c #EEB175",
"% c #F0B885",
"& c #F1C093",
"* c #F3C8A2",
"= c #F4CFAF",
"- c #F6D7BC",
"; c #F7DEC8",
": c #F9E5D3",
"> c #FAECDF",
", c #FCF2EA",
"< c #FDF9F5",
"1 c white",
"2 c None",
/* pixels */
"2ooo...........2",
" o o..........o ",
"......O;>%O$+.o.",
".....@,:<11:....",
"....O,O.o%,O....",
"...o*,+.o;%#....",
"...=11111111<=..",
"..%<@*;;:*%=<1%.",
"o =1,--,>>,=#1*o",
".o@>1111>:<1$1@o",
"..o+#&%oo ;:-= o",
".+,111<-&:*->O..",
".-;#$;1111>*....",
".$;---#$-*O.....",
" o............. ",
"2o...........oo2"
};
