/* XPM */
static char *_d7012e9c6794363ac67eb7eb5671a26[] = {
/* columns rows colors chars-per-pixel */
"128 128 28 1 ",
"  c #CD8300",
". c #CE8300",
"X c #CF8300",
"o c #CB8400",
"O c #CB8500",
"+ c #CC8400",
"@ c #CC8500",
"# c #CD8500",
"$ c #CE8400",
"% c #CF8400",
"& c #CF8500",
"* c #D08D27",
"= c #D49641",
"- c #D79F56",
"; c #DBA869",
": c #DEB079",
"> c #E1B788",
", c #E4BF96",
"< c #E6C6A4",
"1 c #EACEB0",
"2 c #EDD5BC",
"3 c #F0DCC8",
"4 c #F3E3D3",
"5 c #F6EADE",
"6 c #F7F0E9",
"7 c #FAF7F3",
"8 c #FDFDFD",
"9 c None",
/* pixels */
"99999999999999$$$$$$$$$$$$$$$$$$$$$$$$$$$$$$$$$$$$$$$$$$$$$$$$$$$$$$$$$$$$$$$$$$$$$$$$$$$$$$$$$$$$$$$$$$$$$$$$$$$$99999999999999",
"999999999999$$$$$$$$$$$$$$$$$$$$$$$$$$$$$$$$$$$$$$$$$$$$$$$$$$$$$$$$$$$$$$$$$$$$$$$$$$$$$$$$$$$$$$$$$$$$$$$$$$$$$$$$999999999999",
"9999999999$$$$$$$$$$$$$$$$$$$$$$$$$$$$$$$$$$$$$$$$$$$$$$$$$$$$$$$$$$$$$$$$$$$$$$$$$$$$$$$$$$$$$$$$$$$$$$$$$$$$$$$$$$$$9999999999",
"99999999$$$$$$$$$$$$$$$$$$$$$$$$$$$$$$$$$$$$$$$$$$$$$$$$$$$$$$$$$$$$$$$$$$$$$$$$$$$$$$$$$$$$$$$$$$$$$$$$$$$$$$$$$$$$$$$$99999999",
"9999999$$$$$$$$$$$$$$$$$$$$$$$$$$$$$$$$$$$$$$$$$$$$$$$$$$$$$$$$$$$$$$$$$$$$$$$$$$$$$$$$$$$$$$$$$$$$$$$$$$$$$$$$$$$$$$$$$$9999999",
"999999$$$$$$$$$$$$$$$$$$$$$$$$$$$$$$$$$$$$$$$$$$$$$$$$$$$$$$$$$$$$$$$$$$$$$$$$$$$$$$$$$$$$$$$$$$$$$$$$$$$$$$$$$$$$$$$$$$$$999999",
"99999$$$$$$$$$$$$$$$$$$$$$$$$$$$$$$$$$$$$$$$$$$$$$$$$$$$$$$$$$$$$$$$$$$$$$$$$$$$$$$$$$$$$$$$$$$$$$$$$$$$$$$$$$$$$$$$$$$$$$$99999",
"9999$$$$$$$$$$$$$$$$$$$$$$$$$$$$$$$$$$$$$$$$$$$$$$$$$$$$$$$$$$$$$$$$$$$$$$$$$$$$$$$$$$$$$$$$$$$$$$$$$$$$$$$$$$$$$$$$$$$$$$$$$999",
"9999$$$$$$$$$$$$$$$$$$$$$$$$$$$$$$$$$$$$$$$$$$$$$$$$$$$$$$$$$$$$$$$$$$$$$$$$$$$$$$$$$$$$$$$$$$$$$$$$$$$$$$$$$$$$$$$$$$$$$$$$$999",
"999$$$$$$$$$$$$$$$$$$$$$$$$$$$$$$$$$$$$$$$$$$$$$$$$$$$$$$$$$$$$$$$$$$$$$$$$$$$$$$$$$$$$$$$$$$$$$$$$$$$$$$$$$$$$$$$$$$$$$$$$$$999",
"99$$$$$$$$$$$$$$$$$$$$$$$$$$$$$$$$$$$$$$$$$$$$$$$$$$$$$$$$$$$$$*<-$$$$$$$$$$$$$$$$$$$$$$$$$$$$$$$$$$$$$$$$$$$$$$$$$$$$$$$$$$$$99",
"99$$$$$$$$$$$$$$$$$$$$$$$$$$$$$$$$$$$$$$$$$$$$$$$$$$$$$$$$$$$$:7886,=$$$$$$$$$$$$$$$$$$$$$$$$$$$$$$$$$$$$$$$$$$$$$$$$$$$$$$$$$99",
"9O$$$$$$$$$$$$$$$$$$$$$$$$$$$$$$$$$$$$$$$$$$$$$$$$$$$$$$$$$$$188888885>*$$$$$$$$$$$$$$$$$$$$$$$$$$$$$$$$$$$$$$$$$$$$$$$$$$$$$$$9",
"9$$$$$$$$$$$$$$$$$$$$$$$$$$$$$$$$$$$$$$$$$$$$$$$$$$$$$$$$$$-5888888888883>*$$$$$$$$$$$$$$$$$$$$$$:<=$$$$$$$$$$$$$$$$$$$$$$$$$$$9",
"$$$$$$$$$$$$$$$$$$$$$$$$$$$$$$$$$$$$$$$$$$$$$$$$$$$$$$$$$$>78888888888888872:$$$$$$$$$$$$$$$$$$$1883$$$$$$$$$$$$$$$$$$$$$$$$$$$%",
"$$$$$$$$$$$$$$$$$$$$$$$$$$$$$$$$$$$$$$$$$$$$$$$$$$$$$$$$*2888888888888888888871-$$$$$$$$$$$$$$$>8883$$$$$$$$$$$$$$$$$$$$$$$$$$$$",
"$$$$$$$$$$$$$$$$$$$$$$$$$$$$$$$$$$$$$$$$$$$$$$$$$$$$$$$-5888888888888888888888886<=$$$$$$$$$$$-7888=$$$$$$$$$$$$$$$$$$$$$$$$$$$$",
"$$$$$$$$$$$$$$$$$$$$$$$$$$$$$$$$$$$$$$$$$$$$$$$$$$$$$$:78888888888888888888888888885,=$$$$$$$*5888<$$$$$$$$$$$$$$$$$$$$$$$$$$$$$",
"$$$$$$$$$$$$$$$$$$$$$$$$$$$$$$$$$$$$$$$$$$$$$$$$$$$$$<888888888888888888888888888888883>*$$$$28884$$$$$$$$$$$$$$$$$$$$$$$$$$$$$$",
"$$$$$$$$$$$$$$$$$$$$$$$$$$$$$$$$$$$$$$$$$$$$$$$$$$$*38888888888888888888888888888888888882:$>8887*$$$$$$$$$$$$$$$$$$$$$$$$$$$$$$",
"$$$$$$$$$$$$$$$$$$$$$$$$$$$$$$$$$$$$$$$$$$$$$$$$$$-588888888888888888888888888888888888888877888-$$$$$$$$$$$$$$$$$$$$$$$$$$$$$$$",
"$$$$$$$$$$$$$$$$$$$$$$$$$$$$$$$$$$$$$$$$$$$$$$$$$;788888888888888888888888888888888888888888888,$$$$$$$$$$$$$$$$$$$$$$$$$$$$$$$$",
"$$$$$$$$$$$$$$$$$$$$$$$$$$$$$$$$$$$$$$$$$$$$$$$$>888888842<<<<348888888888888888888888888888883$$$$$$$$$$$$$$$$$$$$$$$$$$$$$$$$$",
"$$$$$$$$$$$$$$$$$$$$$$$$$$$$$$$$$$$$$$$$$$$$$$$<888872;$$$$$$$$$$->278888888888888888888888886*$$$$$$$$$$$$$$$$$$$$$$$$$$$$$$$$$",
"$$$$$$$$$$$$$$$$$$$$$$$$$$$$$$$$$$$$$$$$$$$$$$28887<*$$$$$$$$$$$$$$$$-17888888888888888888887-$$$$$$$$$$$$$$$$$$$$$$$$$$$$$$$$$$",
"$$$$$$$$$$$$$$$$$$$$$$$$$$$$$$$$$$$$$$$$$$$$$28885=$$$$$$$$$$$$$$$$$$$$$:4888888888888888888>$$$$$$$$$$$$$$$$$$$$$$$$$$$$$$$$$$$",
"$$$$$$$$$$$$$$$$$$$$$$$$$$$$$$$$$$$$$$$$$$$$28882$$$$$$$$$$$$$$$$$$$$$$$$$=28888888888888882$$$$$$$$$$$$$$$$$$$$$$$$$$$$$$$$$$$$",
"$$$$$$$$$$$$$$$$$$$$$$$$$$$$$$$$$$$$$$$$$$$28882$$$$$$$$$$$$$$$$$$$$$$$$$$$$=<7888888888885*$$$$$$$$$$$$$$$$$$$$$$$$$$$$$$$$$$$$",
"$$$$$$$$$$$$$$$$$$$$$$$$$$$$$$$$$$$$$$$$$$28882$$$$$$$$$$$$$$$$$$$$$$$$$$$$$$$*<7888888887-$$$$$$$$$$$$$$$$$$$$$$$$$$$$$$$$$$$$$",
"$$$$$$$$$$$$$$$$$$$$$$$$$$$$$$$$$$$$$$$$$28886*$$$$$$$$$$$$$$$$$$$$$$$$$$$$$$$$$*28888888:$$$$$$$$$$$$$$$$$$$$$$$$$$$$$$$$$$$$$$",
"$$$$$$$$$$$$$$$$$$$$$$$$$$$$$$$$$$$$$$$$>8888;$$$$$$$$$$$$$$$$$$$$$$$$$$$$$$$$$$$$=288881$$$$$$$$$$$$$$$$$$$$$$$$$$$$$$$$$$$$$$$",
"$$$$$$$$$$$$$$$$$$$$$$$$$$$$$$$$$$$$$$$;88884$$$$$$$$$$$$$$$$$$$$$$$$$$$$$$$$$$$$$$;8885$$$$$$$$$$$$$$$$$$$$$$$$$$$$$$$$$$$$$$$$",
"$$$$$$$$$$$$$$$$$$$$$$$$$$$$$$$$$$$$$$*78888>$$$$$$$$$$$$$$$$$$$$$$$$$$$$$$$$$$$$$*7887*$$$$$$$$$$$$$$$$$$$$$$$$$$$$$$$$$$$$$$$$",
"$$$$$$$$$$$$$$$$$$$$$$$$$$$$$$$$$$$$$$488888=$$$$$$$$$$$$$$$$$$$$$$$$$$$$$$$$$$$$$4888;$$$$$$$$$$$$$$$$$$$$$$$$$$$$$$$$$$$$$$$$$",
"$$$$$$$$$$$$$$$$$$$$$$$$$$$$$$$$$$$$$<888888$$$$$$$$$$$$$$$$$$$$$$$$$$$$$$$$$$$$$<888<$$$$$$$$$$$$$$$$$$$$$$$$$$$$$$$$$$$$$$$$$$",
"$$$$$$$$$$$$$$$$$$$$$$$$$$$$$$$$$$$$-8888884$$$$$$$$$$$$$$$$$$$$$$$$$$$$$$$$$$$$;8884$$$$$$$$$$$$$$$$$$$$$$$$$$$$$$$$$$$$$$$$$$$",
"$$$$$$$$$$$$$$$$$$$$$$$$$$$$$$$$$$$$48888885$$$$$$$$$$$$$$$$$$$$$$$$$$$$$$$$$$$*7886*$$$$$$$$$$$$$$$$$$$$$$$$$$$$$$$$$$$$$$$$$$$",
"$$$$$$$$$$$$$$$$$$$$$$$$$$$$$$$$$$$>88888888$$$$$$$$$$$$$$$$$$$$$$$$$$$$$$$$$$$4888-$$$$$$$$$$$$$$$$$$$$$$$$$$$$$$$$$$$$$$$$$$$$",
"$$$$$$$$$$$$$$$$$$$$$$$$$$$$$$$$$$$688888888:$$$$$$$$$$$$$$$$$$$$$$$$$$$$$$$$$<888,$$$$$$$$$$$$$$$$$$$$$$$$$$$$$$$$$$$$$$$$$$$$$",
"$$$$$$$$$$$$$$$$$$$$$$$$$$$$$$$$$$>8888888883$$$$$$$$$$$$$$$$$$$$$$$$$$$$$$$$;8883$$$$$$$$$$$$$$$$$$$$$$$$$$$$$$$$$$$$$$$$$$$$$$",
"$$$$$$$$$$$$$$$$$$$$$$$$$$$$$$$$$$58888888888:$$$$$$$$$$$$$$$$$$$$$$$$$$$$$$*7885*$$$$$$$$$$$$$$$$$$$$$$$$$$$$$$$$$$$$$$$$$$$$$$",
"$$$$$$$$$$$$$$$$$$$$$$$$$$$$$$$$$-888888888887-$$$$$$$$$$$$$$$$$$$$$$$$$$$$$4887-$$$$$$$$$$$$$$$$$$$$$$$$$$$$$$$$$$$$$$$$$$$$$$$",
"$$$$$$$$$$$$$$$$$$$$$$$$$$$$$$$$$,8888888888887,$$$$$$$$$$$$$$$$$$$$$$$$$$$<8882><<<2444788888743<:-$$$$$$$$$$$$$$$$$$$$$$$$$$$$",
"$$$$$$$$$$$$$$$$$$$$$$$$$$$$$$$$$48888888888888861;$$$$$$$$$$$$=;;;<<<34468888888888888888888888888873,-$$$$$$$$$$$$$$$$$$$$$$$$",
"$$$$$$$$$$$$$$$$$$$$$$$$$$$$$$$$=5888888888888888888644444458888888888888888888888888888888888888888888861=$$$$$$$$$$$$$$$$$$$$$",
"$$$$$$$$$$$$$$$$$$$$$$$$$$$$$$:38888888888888888888888888888888888888888888888888888888888888888888888888884;$$$$$$$$$$$$$$$$$$$",
"$$$$$$$$$$$$$$$$$$$$$$$$$$$$>688888888888888888888888888888888888888888888888888888888888888888888888888888884=$$$$$$$$$$$$$$$$$",
"$$$$$$$$$$$$$$$$$$$$$$$$$$;688888888888888888888888888888888888888888888888888888888888888888888888888888888888<$$$$$$$$$$$$$$$$",
"$$$$$$$$$$$$$$$$$$$$$$$$*3888885=68888888888888888888888888888888888888888888888888888888888888888888888888888884*$$$$$$$$$$$$$$",
"$$$$$$$$$$$$$$$$$$$$$$$-5888882$$188888888888888888888888888888888888888888888888888888888888888888888888888888885-$$$$$$$$$$$$$",
"$$$$$$$$$$$$$$$$$$$$$$-7888882$$$=888888888888888888888888888888888888888888888888888888888888888888888888888888887=$$$$$$$$$$$$",
"$$$$$$$$$$$$$$$$$$$$$=7888884$$$$$<888888888888888888888888888888888888888888888888888888888888888888888888888888885*$$$$$$$$$$$",
"$$$$$$$$$$$$$$$$$$$$*5888888=$$$$$$5888888888888888888888888888888888888888888888888888888888888888888888888888888883$$$$$$$$$$$",
"$$$$$$$$$$$$$$$$$$$$18888882$$$$$$$*388888888888888888888888888888888888888888888444444444788888888888888888888888888,$$$$$$$$$$",
"$$$$$$$$$$$$$$$$$$$;8888888:$$$$$$$$$>68888888888888888888888888888888542<<;;-$$$$$$$$$$$$$$->168888888888888888888887*$$$$$$$$$",
"$$$$$$$$$$$$$$$$$$$48888888*$$$$$$$$$$$;<4788888888888888888643<<,8883$$$$$$$$$$$$$$$$$$$$$$$$$$=<68888888888888888888<$$$$$$$$$",
"$$$$$$$$$$$$$$$$$$;88888888$$$$$$$$$$$$$$$$$;;;;;<>;;;;;;*$$$$$$*5886*$$$$$$$$$$$$$$$$$$$$$$$$$$$$$>6888888888888888887*$$$$$$$$",
"$$$$$$$$$$$$$$$$$$288888888*$$$$$$$$$$$$$$$$$$$$$$$$$$$$$$$$$$$$2888-$$$$$$$$$$$$$$$$$$$$$$$$$$$$$$$$,78888888888888888>$$$$$$$$",
"$$$$$$$$$$$$$$$$$$788888888>$$$$$$$$$$$$$$$$$$$$$$$$$$$$$$$$$$$>888,$$$$$$$$$$$$$$$$$$$$$$$$$$$$$$$$$$-58888888888888883$$$$$$$$",
"$$$$$$$$$$$$$$$$$;8888888884$$$$$$$$$$$$$$$$$$$$$$$$$$$$$$$$$$-7883$$$$$$$$$$$$$$$$$$$$$$$$$$$$$$$$$$$$*5888888888888888$$$$$$$$",
"$$$$$$$$$$$$$$$$$,8888888888,$$$$$$$$$$$$$$$$$$$$$$$$$$$$$$$$*5886*$$$$$$$$$$$$$$$$$$$$$$$$$$$$$$$$$$$$$*588888888888888-$$$$$$$",
"$$$$$$$$$$$$$$$$$<88888888888,$$$$$$$$$$$$$$$$$$$$$$$$$$$$$$$2888-$$$$$$$$$$$$$$$$$$$$$$$$$$$$$$$$$$$$$$$*78888888888888;$$$$$$$",
"$$$$$$$$$$$$$$$$$<8888888888884;$$$$$$$$$$$$$$$$$$$$$$$$$$$$>888,$$$$$$$$-;;><<<244444441<;*$$$$$$$$$$$$$$>8888888888888;$$$$$$$",
"$$$$$$$$$$$$$$$$$<888888888888885>=$$$$$$$$$$$$$$$$$$$$$$$$-7885:<<34478888888888888888888885,*$$$$$$$$$$$$4888888888888;$$$$$$$",
"$$$$$$$$$$$$$$$$$<8888888888888888863<>;;$$$$$$$$$;;;><<345888888888888888888888888888888888887,$$$$$$$$$$$>888888888888;$$$$$$$",
"$$$$$$$$$$$$$$$$$:8888888888888888888888888888888888888888888888888888888888888888888888888888883*$$$$$$$$$$788888888888;$$$$$$$",
"$$$$$$$$$$$$$$$$$*88888888888888888888888888888888888888888888888888888888888888888888888888888884$$$$$$$$$$388888888888=$$$$$$$",
"$$$$$$$$$$$$$$$$$$38888888888888888888888888888888888888888888888888888888888888888888888888888888<$$$$$$$$$,88888888888$$$$$$$$",
"$$$$$$$$$$$$$$$$$$;88888888888888888888888888888888888888888888888888888888888888888888888888888888=$$$$$$$$;88888888884$$$$$$$$",
"$$$$$$$$$$$$$$$$$$$488888888888888888888888888888888888888888888888888888888888888888888888888888882$$$$$$$$;8888888888<$$$$$$$$",
"$$$$$$$$$$$$$$$$$$$*78888888888888888888888888888888888888888888888888888888888888888888888888888887$$$$$$$$$8888888888-$$$$$$$$",
"$$$$$$$$$$$$$$$$$$$$-7888888888888888888888888888888888888888888888888888888888888888888888888888888-$$$$$$$-8888888886$$$$$$$$$",
"$$$$$$$$$$$$$$$$$$$$$-588888888888888888888888888888888888888888888888888888888888888888888888888888;$$$$$$$;888888888<$$$$$$$$$",
"$$$$$$$$$$$$$$$$$$$$$$*<8888888888888888888888888888888888888888888888888888888888888888888888888888;$$$$$$$,888888888=$$$$$$$$$",
"$$$$$$$$$$$$$$$$$$$$$$$$=17888888888888888888888888888888888888888888888542<<:;;;;;>4888888888888888;$$$$$$$2888888882$$$$$$$$$$",
"$$$$$$$$$$$$$$$$$$$$$$$$$$$:2788888888888888888888888888888887442<<:;-$$$$$$$$$$$$$$$>88888888888888$$$$$$$$688888888=$$$$$$$$$$",
"$$$$$$$$$$$$$$$$$$$$$$$$$$$$$$=:<358888888888864448887;;;;*$$$$$$$$$$$$$$$$$$$$$$$$$$$<8888888888885$$$$$$$-888888881$$$$$$$$$$$",
"$$$$$$$$$$$$$$$$$$$$$$$$$$$$$$$$$$$$*;;;;;;*$$$$$<888;$$$$$$$$$$$$$$$$$$$$$$$$$$$$$$$$$788888888888>$$$$$$$188888887*$$$$$$$$$$$",
"$$$$$$$$$$$$$$$$$$$$$$$$$$$$$$$$$$$$$$$$$$$$$$$$;888<$$$$$$$$$$$$$$$$$$$$$$$$$$$$$$$$$$488888888887*$$$$$$$68888888:$$$$$$$$$$$$",
"$$$$$$$$$$$$$$$$$$$$$$$$$$$$$$$$$$$$$$$$$$$$$$$*7884$$$$$$$$$$$$$$$$$$$$$$$$$$$$$$$$$$$58888888888>$$$$$$$>88888883$$$$$$$$$$$$$",
"$$$$$$$$$$$$$$$$$$$$$$$$$$$$$$$$$$$$$$$$$$$$$$$4887*$$$$$$$$$$$$$$$$$$$$$$$$$$$$$$$$$$=88888888883$$$$$$$$68888887*$$$$$$$$$$$$$",
"$$$$$$$$$$$$$$$$$$$$$$$$$$$$$$$$$$$$$$$$$$$$$$<888;$$$$$$$$$$$$$$$$$$$$$$$$$$$$$$$$$$$<8888888885*$$$$$$$,8888888;$$$$$$$$$$$$$$",
"$$$$$$$$$$$$$$$$$$$$$$$$$$$$$$$$$$$$$$$$$$$$$;888<$$$$$$$$$$$$$$$$$$$$$$$$$$$$$$$$$$$-8888888887=$$$$$$$=7888888>$$$$$$$$$$$$$$$",
"$$$$$$$$$$$$$$$$$$$$$$$$$$$$$$$$$$$$$$$$$$$$*7884$$$$$$$$$$$$$$$$$$$$$$$$$$$$$$$$$$$*5888888885=$$$$$$$$48888882$$$$$$$$$$$$$$$$",
"$$$$$$$$$$$$$$$$$$$$$$$$$$$$-;;;;;;;;=$$$$$$4887*$$$$$$$$$$$$$$$$$$$$$$$$$$$$$$$$$$*5888888884*$$$$$$$$,8888882$$$$$$$$$$$$$$$$$",
"$$$$$$$$$$$$$$$$$$$$$$*:<47888888888888742<2888;$$$$$$$$$$$$$$$$$$$$$$$$$$$$$$$$$$=588888888<$$$$$$$$$:8888885$$$$$$$$$$$$$$$$$$",
"$$$$$$$$$$$$$$$$$$$*>38888888888888888888888887<;$$$$$$$$$$$$$$$$$$$$$$$$$$$$$$$$:788888885-$$$$$$$$$-7888885*$$$$$$$$$$$$$$$$$$",
"$$$$$$$$$$$$$$$$$*<78888888888888888888888888888884<;$$$$$$$$$$$$$$$$$$$$$$$$$$*188888887,$$$$$$$$$$-7888884*$$$$$$$$$$$$$$$$$$$",
"$$$$$$$$$$$$$$$$,78888888888888888888888888888888888873>=$$$$$$$$$$$$$$$$$$$$$:688888881*$$$$$$$$$$-7888882$$$$$$$$$$$$$$$$$$$$$",
"$$$$$$$$$$$$$$*4888888888888888888888888888888888888888885,=$$$$$$$$$$$$$$$$;488888882=$$$$$$$$$$$-7888881$$$$$$$$$$$$$$$$$$$$$$",
"$$$$$$$$$$$$$-78888888888888888888888888888888888888888888883>*$$$$$$$$$$$=288888882=$$$$$$$$$$$$>888888>$$$$$$$$$$$$$$$$$$$$$$$",
"$$$$$$$$$$$$-788888888888888888888888888888888888888888888888882:$$$$$$$-288888882=$$$$$$$$$$$$$1888886-$$$$$$$$$$$$$$$$$$$$$$$$",
"$$$$$$$$$$$-7888888888888888888888888888888888888888888888888888872-$$;48888887<*$$$$$$$$$$$$$*4888883*$$$$$$$$$$$$$$$$$$$$$$$$$",
"$$$$$$$$$$*788888888888888888888888888888888888888888888888888888888668888886>*$$$$$$$$$$$$$$;788887,$$$$$$$$$$$$$$$$$$$$$$$$$$$",
"$$$$$$$$$$38888888888888888888888888888888888888888888888888888888888888885;$$$$$$$$$$$$$$$*1888885-$$$$$$$$$$$$$$$$$$$$$$$$$$$$",
"$$$$$$$$$;88888888888853<<<<<345888888888888888888888888888888888888888888861:*$$$$$$$$$$$;688888<$$$$$$$$$$$$$$$$$$$$$$$$$$$$$$",
"$$$$$$$$$28888888883:*$$$$$$$$$$$=;<25888888888888888888888888888888888888888884,-$$$$$$*2888884=$$$$$$$$$$$$$$$$$$$$$$$$$$$$$$$",
"$$$$$$$$$888888883=$$$$$$$$$$$$$$$$$$$*:<5888888888888888888888888888888888888888872>*$,788887>$$$$$$$$$$$$$$$$$$$$$$$$$$$$$$$$$",
"$$$$$$$$;8888888>$$$$$$$$$$$$$$$$$$$$$$$$$*:2688888888888888888888888888888888888888887888881*$$$$$$$$$$$$$$$$$$$$$$$$$$$$$$$$$$",
"$$$$$$$$;888888,$$$$$$$$$$$$$$$$$$$$$$$$$$$$$$-16888888888888888888888888888888888888888884-$$$$$$$$$$$$$$$$$$$$$$$$$$$$$$$$$$$$",
"$$$$$$$$;888885$$$$$$$$$$$$$$$$$$$$$$$$$$$$$$$$$$-178888888888888888888888888888888888886:$$$$$$$$$$$$$$$$$$$$$$$$$$$$$$$$$$$$$$",
"$$$$$$$$;88888<$$$$$$$$$$$$$$$$$$$$$$$$$$$$$$$$$*,6888888888888888888888888888888888887,$$$$$$$$$$$$$$$$$$$$$$$$$$$$$$$$$$$$$$$$",
"$$$$$$$$*88888;$$$$$$$$$$$$$$$$$$$$$$$$$$$$$$$;28888888427888888888888888888888888887<*$$$$$$$$$$$$$$$$$$$$$$$$$$$$$$$$$$$$$$$$$",
"$$$$$$$$$488881$$$$$$$$$$$$$$$$$$$$$$$$$$$$=1688888871=$$$:278888888888888888888887<*$$$$$$$$$$$$$$$$$$$$$$$$$$$$$$$$$$$$$$$$$$$",
"$$$$$$$$$;88887=$$$$$$$$$$$$$$$$$$$$$$$$-,588888884>$$$$$$$$$:28888888888888888882*$$$$$$$$$$$$$$$$$$$$$$$$$$$$$$$$$$$$$$$$$$$$$",
"$$$$$$$$$$288887;$$$$$$$$$$$$$$$$$$$$:1688888886<=$$$$$$$$$$$$$*>388888888888871=$$$$$$$$$$$$$$$$$$$$$$$$$$$$$$$$$$$$$$$$$$$$$$$",
"$$$$$$$$$$*5888883:$$$$$$$$$$$$$*:<48888888861-$$$$$$$$$$$$$$$$$$$*,588888887<*$$$$$$$$$$$$$$$$$$$$$$$$$$$$$$$$$$$$$$$$$$$$$$$$$",
"$$$$$$$$$$$*488888874<<:;;;<<24788888888861-$$$$$$$$$$$$$$$$$$$$$$$$$-17887<*$$$$$$$$$$$$$$$$$$$$$$$$$$$$$$$$$$$$$$$$$$$$$$$$$$$",
"$$$$$$$$$$$$$<7888888888888888888888883,=$$$$$$$$$$$$$$$$$$$$$$$$$$$$$$$>>$$$$$$$$$$$$$$$$$$$$$$$$$$$$$$$$$$$$$$$$$$$$$$$$$$$$$$",
"$$$$$$$$$$$$$$*,5888888888888888863<;$$$$$$$$$$$$$$$$$$$$$$$$$$$$$$$$$$$$$$$$$$$$$$$$$$$$$$$$$$$$$$$$$$$$$$$$$$$$$$$$$$$$$$$$$$$",
"$$$$$$$$$$$$$$$$$=><444584443<,;*$$$$$$$$$$$$$$$$$$$$$$$$$$$$$$$$$$$$$$$$$$$$$$$$$$$$$$$$$$$$$$$$$$$$$$$$$$$$$$$$$$$$$$$$$$$$$$$",
"$$$$$$$$$$$$$$$$$$$$$$$$$$$$$$$$$$$$$$$$$$$$$$$$$$$$$$$$$$$$$$$$$$$$$$$$$$$$$$$$$$$$$$$$$$$$$$$$$$$$$$$$$$$$$$$$$$$$$$$$$$$$$$$$",
" $$$$$$$$$$$$$$$$$$$$$$$$$$$$$$$$$$$$$$$$$$$$$$$$$$$$$$$$$$$$$$$$$$$$$$$$$$$$$$$$$$$$$$$$$$$$$$$$$$$$$$$$$$$$$$$$$$$$$$$$$$$$$$$",
" $$$$$$$$$$$$$$$$$$$$$$$$$$$$$$$$$$$$$$$$$$$$$$$$$$$$$$$$$$$$$$$$$$$$$$$$$$$$$$$$$$$$$$$$$$$$$$$$$$$$$$$$$$$$$$$$$$$$$$$$$$$$$$$",
"9$$$$$$$$$$$$$$$$$$$$$$$$$$$$$$$$$$$$$$$$$$$$$$$$$$$$$$$$$$$$$$$$$$$$$$$$$$$$$$$$$$$$$$$$$$$$$$$$$$$$$$$$$$$$$$$$$$$$$$$$$$$$$$9",
"9 $$$$$$$$$$$$$$$$$$$$$$$$$$$$$$$$$$$$$$$$$$$$$$$$$$$$$$$$$$$$$$$$$$$$$$$$$$$$$$$$$$$$$$$$$$$$$$$$$$$$$$$$$$$$$$$$$$$$$$$$$$$$$9",
"99$$$$$$$$$$$$$$$$$$$$$$$$$$$$$$$$$$$$$$$$$$$$$$$$$$$$$$$$$$$$$$$$$$$$$$$$$$$$$$$$$$$$$$$$$$$$$$$$$$$$$$$$$$$$$$$$$$$$$$$$$$$$99",
"99$$$$$$$$$$$$$$$$$$$$$$$$$$$$$$$$$$$$$$$$$$$$$$$$$$$$$$$$$$$$$$$$$$$$$$$$$$$$$$$$$$$$$$$$$$$$$$$$$$$$$$$$$$$$$$$$$$$$$$$$$$$$99",
"999$$$$$$$$$$$$$$$$$$$$$$$$$$$$$$$$$$$$$$$$$$$$$$$$$$$$$$$$$$$$$$$$$$$$$$$$$$$$$$$$$$$$$$$$$$$$$$$$$$$$$$$$$$$$$$$$$$$$$$$$$$$99",
"9999$$$$$$$$$$$$$$$$$$$$$$$$$$$$$$$$$$$$$$$$$$$$$$$$$$$$$$$$$$$$$$$$$$$$$$$$$$$$$$$$$$$$$$$$$$$$$$$$$$$$$$$$$$$$$$$$$$$$$$$$$999",
"9999$$$$$$$$$$$$$$$$$$$$$$$$$$$$$$$$$$$$$$$$$$$$$$$$$$$$$$$$$$$$$$$$$$$$$$$$$$$$$$$$$$$$$$$$$$$$$$$$$$$$$$$$$$$$$$$$$$$$$$$$9999",
"99999$$$$$$$$$$$$$$$$$$$$$$$$$$$$$$$$$$$$$$$$$$$$$$$$$$$$$$$$$$$$$$$$$$$$$$$$$$$$$$$$$$$$$$$$$$$$$$$$$$$$$$$$$$$$$$$$$$$$$$99999",
"999999$$$$$$$$$$$$$$$$$$$$$$$$$$$$$$$$$$$$$$$$$$$$$$$$$$$$$$$$$$$$$$$$$$$$$$$$$$$$$$$$$$$$$$$$$$$$$$$$$$$$$$$$$$$$$$$$$$$$999999",
"999999$$$$$$$$$$$$$$$$$$$$$$$$$$$$$$$$$$$$$$$$$$$$$$$$$$$$$$$$$$$$$$$$$$$$$$$$$$$$$$$$$$$$$$$$$$$$$$$$$$$$$$$$$$$$$$$$$$$9999999",
"99999999$$$$$$$$$$$$$$$$$$$$$$$$$$$$$$$$$$$$$$$$$$$$$$$$$$$$$$$$$$$$$$$$$$$$$$$$$$$$$$$$$$$$$$$$$$$$$$$$$$$$$$$$$$$$$$$$ 9999999",
"999999999$$$$$$$$$$$$$$$$$$$$$$$$$$$$$$$$$$$$$$$$$$$$$$$$$$$$$$$$$$$$$$$$$$$$$$$$$$$$$$$$$$$$$$$$$$$$$$$$$$$$$$$$$$$$$$999999999",
"99999999999$$$$$$$$$$$$$$$$$$$$$$$$$$$$$$$$$$$$$$$$$$$$$$$$$$$$$$$$$$$$$$$$$$$$$$$$$$$$$$$$$$$$$$$$$$$$$$$$$$$$$$$$$O99999999999",
"9999999999999$$$$$$$$$$$$$$$$$$$$$$$$$$$$$$$$$$$$$$$$$$$$$$$$$$$$$$$$$$$$$$$$$$$$$$$$$$$$$$$$$$$$$$$$$$$$$$$$$$$$$$9999999999999"
};
