/* XPM */
static char *_____________[] = {
/* columns rows colors chars-per-pixel */
"128 128 30 1 ",
"  c #DC8000",
". c #DD8100",
"X c #E18300",
"o c #E18400",
"O c #E28400",
"+ c #E28500",
"@ c #E38500",
"# c #E48400",
"$ c #E58400",
"% c #E58500",
"& c #E68500",
"* c #E68600",
"= c #E78600",
"- c #E68E14",
"; c #E89737",
": c #EBA04F",
"> c #EDA962",
", c #EEB175",
"< c #F0B885",
"1 c #F1C093",
"2 c #F3C8A2",
"3 c #F4CFAF",
"4 c #F6D7BC",
"5 c #F7DEC8",
"6 c #F9E5D3",
"7 c #FAECDF",
"8 c #FCF2EA",
"9 c #FDF9F5",
"0 c white",
"q c None",
/* pixels */
"qqqqqqqqqqqqqqq*O#*#*#*#*#*#*#*#*#*#*#*#*#*#*#*#*#*#*#*#*#*#*#*#*#*#*#*#*#*#*#*##*#*#*#*#*#*#*#*#*#*#*#*#*#*#*#@*qqqqqqqqqqqqqqq",
"qqqqqqqqqqqq***#**#*#*#*#*#*#*#*#*#*#*#*#*#*#*#*#*#*#*#*#*#*#*#*#*#*#*#*#*#*#*#**#*#*#*#*#*#*#*#*#*#*#*#*#*#*#*##**@qqqqqqqqqqqq",
"qqqqqqqqqqX#**#**#*#*#*#*#*#*#*#*#*#*#*#*#*#*#*#*#*#*#*#*#*#*#*#*#*#*#*#*#*#*#*##*#*#*#*#*#*#*#*#*#*#*#*#*#*#*#*#*@*##qqqqqqqqqq",
"qqqqqqqqq**#X**##*#*#*#*#*#*#*#*#*#*#*#*#*#*#*#*#*#*#*#*#*#*#*#*#*#*#*#*#*#*#*#**#*#*#*#*#*#*#*#*#*#*#*#*#*#*#*#*#*#***qqqqqqqqq",
"qqqqqqqXX*#*#*#**#*#*#*#*#*#*#*#*#*#*#*#*#*#*#*#*#*#*#*#*#*#*#*#*#*#*#*#*#*#*#*##*#*#*#*#*#*#*#*#*#*#*#*#*#*#*#*#*#*#**##qqqqqqq",
"qqqqqq***#*#*#*##*#*#*#*#*#*#*#*#*#*#*#*#*#*#*#*#*#*#*#*#*#*#*#*#*#*#*#*#*#*#*#**#*#*#*#*#*#*#*#*#*#*#*#*#*#*#*#*#*#*#*#**qqqqqq",
"qqqqqX**#*#*#*#**#*#*#*#*#*#*#*#*#*#*#*#*#*#*#*#*#*#*#*#*#*#*#*#*#*#*#*#*#*#*#*##*#*#*#*#*#*#*#*#*#*#*#*#*#*#*#*#*#*#*#*@**qqqqq",
"qqqq O***#*#*#*##*#*#*#*#*#*#*#*#*#*#*#*#*#*#*#*#*#*#*#*#*#*#*#*#*#*#*#*#*#*#*#**#*#*#*#*#*#*#*#*#*#*#*#*#*#*#*#*#*#*#*#*#*.qqqq",
"qqqq**#*#*#*#*#**#*#*#*#*#*#*#*#*#*#*#*#*#*#*#*#*#*#*#*#*#*#*#*#*#*#*#*#*#*#*#*##*#*#*#*#*#*#*#*#*#*#*#*#*#*#*#*#*#*#*#*#**#qqqq",
"qqqX*#*#*#*#*#*##*#*#*#*#*#*#*#*#*#*#*#*#*#*#*#*#*#*#*#*#*#*#*#*#*#*#*#*#*#*#*#**#*#*#*#*#*#*#*#*#*#*#*#*#*#*#*#*#*#*#*#*##*#qqq",
"qqq*#*#*#*#*#*#**#*#*#*#*#*#*#*#*#*#*#*#*#*#*#*#*#*#*#*#*#*#*#*#*#*#*#*#*#*#*#*##*#*#*#*#*#*#*#*#*#*#*#*#*#*#*#*#*#*#*#*#*#**#qq",
"qqX**#*#*#*#*#*##*#*#*#*#*#*#*#*#*#*#*#*#*#*#*#*#*#*#*#*#*#*#*#*#*#*#*#*#*#*#*#**#*#*#*#*#*#*#*#*#*#*#*#*#*#*#*#*#*#*#*#*#*#@*qq",
"qq#*#*#*#*#*#*#**#*#*#*#*#*#*#*#*#*#*#*#*#*#*#*#*#*#*#*#*#*#*#*#*#*#*#*#*#*#*#*##*#*#*#*#*#*#*#*#*#*#*#*#*#*#*#*#*#*#*#*#*#**##q",
"qO***#*#*#*#*#*##*#*#*#*#*#*#*#*#*#*#*#*#*#*#*#*#*#*#*#*#*#*#*#*#*#*#*#*#*#*#*#**#*#*#*#*#*#*#*#*#*#*#*#*#*#*#*#*#*#*#*#*#*##**q",
"q**##*#*#*#*#*#**#*#*#*#*#*#*#*#*#*#*#*#*#*#*#*#*#*#*#*#*#*#*#*#*#*#*#*#*#*#*#*##*#*#*#*#*#*#*#*#*#*#*#*#*#*#*#*#*#*#*#*#*#*#**q",
"q*#**#*#*#*#*#*##*#*#*#*#*#*#*#*#*#*#*#*#*#*#*#*#*#*#*#*#*#*#*#*#*#*#*#*#*#*#*#**#*#*#*#*#*#*#*#*#*#*#*#*#*#*#*#*#*#*#*#*#*#***q",
"q#*#*#*#*#*#*#*#*#*#*#*#*#*#*#*#*#*#*#*#*#*#*#*#*#*#*#*##*#**##**##*#*#*#*#*#*#*#*#*#*#*#*#*#*#**#*#*#*#*#*#*#*##*#*#*#*#*#*#*#*",
"**#*#*#*#*#*#*#*#*#*#*#*#*#*#*#*#*#*#*#*#*#*#*#*#*#*#*#**#*##*-2:**#*#*#*#*#*#*#*#*#*#*#*#*#*#*##*#*#*#*#*#*#*#**#*#*#*#*#*#*###",
"X**#*#*#*#*#*#*#*#*#*#*#*#*#*#*#*#*#*#*#*#*#*#*#*#*#*#*##*#**>90082;**#*#*#*#*#*#*#*#*#*#*#*#*#**#*#*#*#*#*#*#*##*#*#*#*#*#**#*#",
"#*#*#*#*#*#*#*#*#*#*#*#*#*#*#*#*#*#*#*#*#*#*#*#*#*#*#*#**#*#200000008<-#*#*#*#*#*#*#*#*#*#*#*#*##*#*#*#*#*#*#*#**#*#*#*#*#*##*##",
"#*#**#*#*#*#*#*#*#*#*#*#*#*#*#*#*#*#*#*#*#*#*#*#*#*#*#*###;7000000000005<-#*#*#*#*#*#*#***#**-45;#*#*#*#*#*#*#*##*#*#*#**#*#*#*#",
"##*##*#*#*#*#*#*#*#*#*#*#*#*#*#*#*#*#*#*#*#*#*#*#*#*#*#**,90000000000000094,*#***#*#*#*#@**#-700<-#*#*#*#*#*#*#**#*#*#*##*#*#*##",
"#*#**#*#*#*#*#*#*#*#*#*#*#*#*#*#*#*#*#*#*#*#*#*#*#*#*##*3000000000000000000094:O#*#*#*#*@***5000>#*#*#*#*#*#*#*##*#*#*#**#*#*#*#",
"##*##*#*#*#*#*#*#*#*#*#*#*#*#*#*#*#*#*#*#*#*#*#*#*#*#*-70000000000000000000000083;*#*#*#**@<0003**#*#*#*#*#*#*#**#*#*#*##*#*#*##",
"###*#*#**#*#*#*#*#*#*#*#*#*#*#*#*#*#*#*#*#*#*#*#*#*#*>90000000000000000000000000007<;**O*#:0008-#*#*#*#**#*#*#*#*#*#*#*#*#*#*#*#",
"#**#*#*##*#*#*#*#*#*#*#*#*#*#*#*#*#*#*#*#*#*#*#*#*#*<000000000000000000000000000000006<-*-8000:#*#*#*#*##*#*#*#*#*#*#*#*#*#*#*##",
"#*#*#*#**#*#*#*#*#*#*#*#*#*#*#*#*#*#*#*#*#*#*#*#**#400000000000000000000000000000000000056000<*##*#*#*#**#*#*#*#*#*#*#*#*#*#*#*#",
"##*#*#*##*#*#*#*#*#*#*#*#*#*#*#*#*#*#*#*#*#*#*#*#-7000000000000000000000000000000000000000004*#**#*#*#*##*#*#*#*#*#*#*#*#*#*#*##",
"#*#*#*#**#*#*#*#*#*#*#*#*#*#*#*#*#*#*#*#*#*##*##:8000000966667000000000000000000000000000007-#*##*#*#*#**#*#*#*#*#*#*#*#*#*#*#*#",
"##*#*#*##*#*#*#*#*#*#*#*#*#*#*#*#*#*#*#*#*#**#*:900004,-#**##*#;,37000000000000000000000009:#*#**#*#*#*##*#*#*#*#*#*#*#*#*#*#*##",
"###*#*#**#*#*#*#*#*#*#*#*#*#*#*#*#*#*#*#*#*##*<90002-#***#*#*##*OX*;<800000000000000000000,**#*##*#*#*#**#*#*#*#*#*#*#*#*#*#*#*#",
"#**#*#*##*#*#*#*#*#*#*#*#*#*#*#*#*#*#*#*#*#**<0007;#***O#*#*#**#***#**;3900000000000000003*##*#**#*#*#*##*#*#*#*#*#*#*#*#*#*#*##",
"#*#*#*#*#*#*#*#**#*#*#*#*#*#*#*#*#*#*#*#*#*#<0004*#*#*#*#*#*#*#**#*#*#*#-<800000000000007*#*#*#*#*#*#*#*#*#*#*#*#*#*#*#*#*#*#*##",
"##*#*#*#*#*#*#*##*#*#*#*#*#*#*#*#*#*#*#*#*#<0004#**#*#*#*#*#*#*##*#*#*#*#*#<800000000009;#*#*#*#*#*#*#*#*#*#*#*#*#*#*#*#*#*#*#*#",
"#*#*#*#*#*#*#*#**#*#*#*#*#*#*#*#*#*#*#*#**<0005**#*##*#*#*#*#*#**#*#*#*#*##**<800000000>#*#*#*#*#*#*#*#*#*#*#*#*#*#*#*#*#*#*#*##",
"##*#*#*#*#*#*#*##*#*#*#*#*#*#*#*#*#*#*#*#:0009-##*#**#*#*#*#*#*##*#*#*#*#**#*##<8000002**#*#*#*#*#*#*#*#*#*#*#*#*#*#*#*#*#*#*#*#",
"###*#*#*#*#*#*#**#*#*#*#*#*#*#*#*#*#*#*#;9000<***#*#*#*##*#*#*#**#*#*#*#*#*##*#*#30006*##*#*#*#*#*#*#*#*#*#*#*#*#*#*#*#*#*#*#*##",
"#**#*#*#*#*#*#*##*#*#*#*#*#*#*#*#*#*#*#-70009-**#*#*#*#**#*#*#*##*#*#*#*#*#**#*#-7009-#**#*#*#*#*#*#*#*#*#*#*#*#*#*#*#*#*#*#*#*#",
"#*#*#*#*#*#*#*#**#*#*#*#*#*#*#*#*#*#*#*400005*@**#*#*#*##*#*#*#**#*#*#*#*#*##*#*3000:##*#*#*#*#*#*#*#*#*#*#*#*#*#*#*#*#*#*#*#*##",
"##*#*#*#*#*#*#*##*#*#*#*#*#*#*#*#*#*#*<00000<*@*#*#*#*#**#*#*#*##*#*#*#*#*#**#*,000<*#*#*#*#*#*#*#*#*#*#*#*#*#*#*#*#*#*#*#*#*#*#",
"#*#*#*#*#*#*#*#**#*#*#*#*#*#*#*##*#*#;900000>****#*#*#*##*#*#*#**#*#*#*##*#*#*;9005#*#*##*#*#*#*#*#*#*#*#*#*#*#*#*#*#*#*#*#*#*##",
"##*#*#*#*#*#*#*##*#*#*#*#*#*#*#**#*#*5000000>O*X#*#*#*#**#*#*#*##*#*#*#**#*#*#7008-*#*#**#*#*#*#*#*#*#*#*#*#*#*#*#*#*#*#*#*#*#*#",
"###*#*#*#*#*#*#**#*#*#*#*#*#*#*##*#*>0000000<#*#*#*#*#*##*#*#*#**#*#*#*##*###3009:***#*##*#*#*#*#*#*#*#*#*#*#*#*#*#*#*#*#*#*#*##",
"#**#*#*#*#*#*#*##*#*#*#*#*#*#*#**#*#800000004*#*#*#*#*#**#*#*#*##*#*#*#**#*X,000<**X#*#**#*#*#*#*#*#*#*#*#*#*#*#*#*#*#*#*#*#*#*#",
"#*#*#*#*#*#*#*#**#*#*#*#*#*#*#*##*#,000000009-*#*#*##*#*#*#*#*#**#*#*#*#@**;9004#*#**#*##*#*#*#*#*#*#*#*#*#*#*#*#*#*#*#*#*#*#*##",
"##*#*#*#*#*#*#*##*#*#*#*#*#*#*#**#*60000000005#*#*#**#*#*#*#*#*##*#*#*#***@8007-*#*##*#**#*#*#*#*#*#*#*#*#*#*#*#*#*#*#*#*#*#*#*#",
"#*#*#*#*#*#*#*#**#*#*#*#*#*#*##&#*;000000000004**##*#*#*#*#*#*#**#*#*#*#**3009;##*#**#*;>:*##*#*#*#*#*#*#*#*#*#*#*#*#*#*#*#*#*##",
"##*#*#*#*#*#*#*##*#*#*#*#*#*#*&#*#<0000000000006;#*#*#*#*#*#*#**#*#*#*#*;<0006226667000000000642>-*#*#*#*#*#*#*#*#*#*#*#*#*#*#*#",
"###*#*#*#*#*#*#*#*#*#*#**#*#*####*40000000000000072>;*#**O->>>,2225668000000000000000000000000000073:#*##*#*#*#*#*#*#*#*#*#*#*##",
"#**#*#*#*#*#*#*#*#*#*#*#@*#*#*###<800000000000000000000000000000000000000000000000000000000000000000083;*#*#*#*#*#*#*#*#*#*#*#*#",
"#*#*#*#*#*#*#*#*#*#*#*#*@****X;29000000000000000000000000000000000000000000000000000000000000000000000004;#*#*#*#*#*#*#*#*#*#*##",
"##*#*#*#*#*#*#*#*#*#*#*#**@*-500000000000000000000000000000000000000000000000000000000000000000000000000003-*#*#*#*#*#*#*#*#*#*#",
"#*#*#*#*#*#*#*#**#*##*#**#*<90000680000000000000000000000000000000000000000000000000000000000000000000000008:***#*#*#*#*#*#*#*##",
"##*#*#*#*#*#*#*##*#**#*##-600000<#400000000000000000000000000000000000000000000000000000000000000000000000009<X**#*#*#*#*#*#*#*#",
"###*#*#*#*#*#*#**#*#*##*-700000<**:000000000000000000000000000000000000000000000000000000000000000000000000000<*#*#*#*#*#*#*#*##",
"#**#*#*#*#*#*#*##*#*#*#-700000<****4000000000000000000000000000000000000000000000000000000000000000000000000000,*#*#*#*#*#*#*#*#",
"#*#*#*#*#*#*#*#**#*##*#7000005*#@@*-8000000000000000000000000000000000000000000000000000000000000000000000000009:#*##*#*#*#*#*##",
"##*#*#*#*#*#*#*##*#**#3000000:#***@*:7000000000000000000000000000000000000000000066666900000000000000000000000007*#**#*#*#*#*#*#",
"#*#*#*#*#*#*#*#**#*#*:0000008#*#*#*##-200000000000000000000000000000076422>>>#*##*#*#*#*-><5800000000000000000000<*##*#*#*#*#*##",
"##*#*#*#*#*#*#*##*#*#60000004*#*#*#*##X-<460000000000000000765222000<#*#*#*#**#**#*#*#*#**#*#:39000000000000000000-#*#*#*#*#*#*#",
"###*#*#*#*#*#*#**##*:00000002**#*#*#*#*##*#*#>>>>>>>>>>>#*#*#**-9004#*#*#*#*#*#*#*#*#*#*#*#**#*-2900000000000000001*#*#*#*#*#*##",
"#**#*#*#*#*#*#*##**#300000005##*#*#*#*#**#*##*#**#*#*#*#*#*#*#*5007-*#*#*#*#*#*#*#*#*#*#*#*##*#*#-30000000000000007O*#*#*#*#*#*#",
"#*#*#*#*#*#*#*#**#**800000009-*#*#*#*#*##*#**#*##*#*#*#*#*#*##<009:*#*#*#*#*#*#*#*#*#*#*#*#**#*#*#*,900000000000000;#*#*#*#*#*##",
"##*#*#*#*#*#*#*##*#;0000000002#*#*#*#*#**#*##*#**#*#*#*#*#*#*:000<*#*#*#*#*#*#*#*#*#*#*#*#*##*#*#*#*:90000000000000,*#*#*#*#*#*#",
"X*#*#*#*#*#*#*#*#**>0000000000<*#*#**#*##*#*#*#**#*#*#*#****-8004*#**#*#*#*#*#*##*#*#*#*#*#**#*#*#*#*>00000000000002*#*#*#*#*#*X",
"##*#*#*#*#*#*#*#*#*,000000000001*#*##*#**#*#*#**#*#*#*#*@@**5007-#*##*#*#*#*#*->>>>>>;*#*#*##*#*#*#*#*20000000000003#*#*#*#*#**#",
"#*#*#*#*#*#*#*#*#*O20000000000008<-**#*##*#*#**X*#*#*#O***#<009:#->><22466700000000000085<-#*##**#*##*#8000000000006*#*#*#*##*##",
"##*#*#*#*#*#*#*#*#*>00000000000000052>;#*#*#*#**#*#*#*->,<2000900000000000000000000000000004-#*##*#**#*<000000000005#*#*#*#**#*#",
"##*##*#*#*#*#*#*#*#>0000000000000000000086666666666800000000000000000000000000000000000000009,#**#*##*#-900000000002*#*##*#*#*##",
"#*#**#*#*#*#*#*#*##*00000000000000000000000000000000000000000000000000000000000000000000000000<*#*#**##*400000000002#*#**#*#*#*#",
"##*##*#*#*#*#*#**#*#400000000000000000000000000000000000000000000000000000000000000000000000000:*#*#*#*#<0000000000,*#*##*#*#*##",
"#*#**#*#*#*#*#*##*#*>000000000000000000000000000000000000000000000000000000000000000000000000007#*#*#*#*>0000000000;#*#**#*#*#*#",
"#**#*#*##*#*#*#**#*#*500000000000000000000000000000000000000000000000000000000000000000000000000>#*##*#*-0000000008##*#*#*#*#*##",
"###*#*#**#*#*#*##*#*#-900000000000000000000000000000000000000000000000000000000000000000000000004*#**#*##0000000003**#*#*#*#*#*#",
"##*#*#*##*#*#*#**#*##*:90000000000000000000000000000000000000000000000000000000000000000000000006#*##*#*-000000000:##*#*#*#*#*##",
"#*#*#*#**#*#*#*##*#**#*;7000000000000000000000000000000000000000000000000000000000000000000000000*#**#*#>000000008*#*#*#*#*#*#*#",
"##*#*#*##*#*#*#*#*#*#*#*#<00000000000000000000000000000000000000000000000000000000000000000000009**#*##*<00000000<**#*#*#*#*#*##",
"#*#*#*#**#*#*#*#*#*#*#*#*#-170000000000000000000000000000000000000096632<>>-*##**:400000000000006##*#**#400000009-***#*#*#*#*#*#",
"#**#*#*##*#*#*#*#*#*#*#*#*#**;<6800000000000000000000006666322<>>-*#*#*#*#*#*#*#*#*<0000000000004#*#*#**800000002*@*#*#*#*#*#*##",
"###*#*#**#*#*#*#*#*#*#*#*#**X*#*#-><256666664221>1000<#**#*#*#*##*#*#*#*#*#*#*#*#*##500000000000,*#*#*#:00000008@*@**#*#*#*#*#*#",
"##*#*#*#*#*#*#*##*#*#*#*#*#**#*#*#*##*#*#*#*#*#*-7005*#*#*#*#*#**#*#*#*##*#*#*#*#*#*,00000000008*#*##**30000000>*#*#*#*#*#*#*#*#",
"#*#*#*#*#*#*#*#**#*#*#*#*#*##*#*#*#**#*#*#*#*#*#4008-**#*#*#*#*##*#*#*#**#*#*#*#*#*#>0000000000<#*#**#-90000005##*#*#*#*#*#*#*##",
"##*#*#*#*#*#*#*##*#*#*#*#*#**#*#*#*##*#*#*#**##<000:**#*#*#*#*#**#*#*#*##*#*#*#*#*#*<0000000006**#*##*20000008-**#*#*#*#*#*#*#*#",
"#*#*#*#*#*#*#*#**#*#*#*#*#*##*#*#*#**#*#*#*##*;900<#X**#*#*#*#*##*#*#*#**#*#*#*#*#*#9000000009-##*#*#-9000000:#*#*#*#*#*#*#*#*##",
"#**#*#*#*#*#*#*##*#*#*#*#*#*#**#*#*#*##*#**O**7005#**#*##*#*#*#**#*#*#*##*#*#*#*@**<000000009:#**#*##4000000<#*#*#*#*#*#*#*#*#*#",
"###*#*#*#*#*#*#**#*#*#*#*#***##*#*#*#**#*#**#3008-*##*#**#*#*#*##*#*#*#**#*#*#*#**:000000009:#*##*#*,0000004*##*#*#*#*#*#*#*#*##",
"##*#*#*#*#*#*#*##*#*#*#*#**X#->>>>>>>>-*#***,000:**#*#*##*#*#*#**#*#*#*##*#*#*#**:900000007;*##*#**;9000004*#*#**#*#*#*#*#*#*#*#",
"#*#*#*#*#*#*#*#**#*#*#*#;<560000000000008642900<#*#*#*#**#*#*#*##*#*#*#**#*#*#*#>000000003-*#**#*#-7000006*#*#*##*#*#*#*#*#*#*##",
"#*#*#*#**#*#*#*##*##*;28000000000000000000000004<:*#*#*##*#*#*#**#*##*#*#*#**#*200000008>#*##*#*#*5000007-#*#*#**#*#*#*#*#*#*#*#",
"##*#*#*##*#*#*#**#*;40000000000000000000000000000095<;#**#*#*#*##*#**#*#*#*##:700000092*#*#**#*##4000004-**#*#*##*#*#*#*#*#*#*##",
"###*#*#**#*#*#*##*20000000000000000000000000000000000073:##*#*#**#*##*#**##-200000004;*#*#*##**#4000004**#*##*#**#*#*#*#*#*#*#*#",
"#**#*#*##*#*#*#*-600000000000000000000000000000000000000083:*#*##*#**#*##*<90000004;#*#*#*#**#-7000002*##*#**#*##*#*#*#*#*#*#*##",
"#*#*#*#*#*#**#*:9000000000000000000000000000000000000000000082;**#*#*##*<80000004;*#*#*#*#*#*;700009,#*#*#*#*#*#*#*#*#*#*#*#*#*#",
"##*#*#*#*#*##*:9000000000000000000000000000000000000000000000007<-#**-<80000094;#X#*#*#*#*#*>900007:#*#*#*#*#*#*#*#*#*#*#*#*#*##",
"#*#*#*#*#*#*#;90000000000000000000000000000000000000000000000000005,290000092-#**#*#*#*#**#2000003-**#*#*#*#*#*#*#*#*#*#*#*#*#*#",
"##*#*#*#*#*#*6000000000000000000000000000000000000000000000000000000000007<*#**##*#*#*#*#;700009,##*#*#*#*#*#*#*#*#*#*#*#*#*#*##",
"###*#*#***@*<0000000000000766700000000000000000000000000000000000000000094<-*#*##*#**##*<900005-*#*#*#*#*#*#*#*#*#*#*#*#*#*#*#*X",
"#**#*#*#@**#80000000093,-**##**#-><2680000000000000000000000000000000000000072>**#*##*:700009,#*#*#*#*#*#*#*#*#*#*#*#*#*#*#*#**#",
"#*#*#*#*@**:00000009<##*#*#*#*#**#*#*#-,37000000000000000000000000000000000000095<;*-3000003-**#*#*#*#*#*#*#*#*#*#*#*#*#*#*##*##",
"##*#*#*#***<0000006-*#*#*#*#*#*##*#*#**##*-,4800000000000000000000000000000000000008900006:#*##*#*#*#*#*#*#*#*#*#*#*#*#*#*#**#*#",
"#*#*#*#**#*2000007#*#*#*#*#*#*#**#*#*#*#*#*#*#:38000000000000000000000000000000000000009<*O**#*#*#*#*#*#*#*#*#*#*#*#*#*##*#*#*##",
"##*#*#*##*#200000;*#*#*#*#*#*#*##*#*#*#*#*#*#*#**:3000000000000000000000000000000000092-**#*#*#*#*#*#*#*#*#*#*#*#*#*#*#**#*#*#*#",
"###*#*#**#*200007*#*#*#*#*#*#*#**#*#*#*#*#*#*#*#;390000000000000000000000000000000004;*#*#*#*#*#*#*#*#*#*#*#*#*#*#*#*#*##*#*#*##",
"#**#*#*##*#>00006#*#*#*#*#*#*#*##*#*#*#*#*#*#*<60000009<490000000000000000000000005;#*#*#*#*#*#*#*#*#*#*#*#*#*#*#*#*#*#**#*#*#*#",
"#*#*#*#*#*#*80000-**#*#*#*#*#*#*#*#*#**##*#,490000005>X##&,4900000000000000000006>*#*#*#*#*#*#*#*#*#*#*#*#*#*#*#*#*#*#*##*#*#*##",
"##*#*#*#*#*#<00004*O*#*#*#*#*#*#*#*#*#*O,490000007<-*###&#&##,49000000000000006>**#*#*#*#*#*#*#*#*#*#*#*#*#*#*#*#*#*#*#**#*#*#*#",
"#*#*#*#*#*#*#500007>#*#*#*#**##*#**#:<6000000083:@**#*#**#*##*#-<500000000006>*#O#*#*#*#*#*#*#*#*#*#*#*#*#*#*#*#*#*#*#*##*#*#*##",
"##*#*#*#*#*#*-7000008<>**#*##*#><269000000083:*#***@*#*##*#**#**#*-<7000004;*##***#*#*#*#*#*#*#*#*#*#*#*#*#*#*#*#*#*#*#**#*#*#*#",
"###*#*#*#*#*#*#300000000086690000000000073:*#*#**@#*#*#**#*#*#*##*#**:494;*#*#*#*#*#*#*#*#*#*#*#*#*#*#*#*#*#*#*#*#*#*#*#*#*##*##",
"#**#*#*#*#*#*#*#>500000000000000000074<-*#*#*#*#***#*#*##*#*#*#**#*#*O**#*#*#*#*#*#*#*#*#*#*#*#*#*#*#*#*#*#*#*#*#*#*#*#*#*#**#*#",
"#*#*#*#*#*#*#*#**#;<47000000008642>-#*#*#*#*#*#*@*#*#*#**#*#*#*##*#*#*#**#*#*#*#*#*#*#*#*#*#*#*#*#*#*#*#*#*#*#*#*#*#*#*#*#*#*###",
"q**#*#*#*#*#*#*##**X#*#*;>>;#*#**#*#*#*#*#*#*#*#*#*#*#*##*#*#*#**#*#*#*##*#*#*#*#*#*#*#*#*#*#*#*#*#*#*#*#*#*#*#*#*#*#*#*#*#*#*#*",
"q#*#*#*#*#*#*#*#*#*#*#*#*#*#*#*##*#*#*#*#*#*#*#*#*#*#*#*#*#*#*#*#*#*#*#*#*#*#*#**#*#*#*#*#*#*#*#*#*#*#*#*#*#*#*#*#*#*#*#*#*#*#*q",
"q*#*#*#*#*#*#*#*#*#*#*#*#*#*#*#**#*#*#*#*#*#*#*#*#*#*#*#*#*#*#*#*#*#*#*#*#*#*#*##*#*#*#*#*#*#*#*#*#*#*#*#*#*#*#*#*#*#*#*#*#*#**q",
"qO&**#*#*#*#*#*#*#*#*#*#*#*#*#*##*#*#*#*#*#*#*#*#*#*#*#*#*#*#*#*#*#*#*#*#*#*#*#**#*#*#*#*#*#*#*#*#*#*#*#*#*#*#*#*#*#*#*#*#*#**Xq",
"qq#*#*#*#*#*#*#*#*#*#*#*#*#*#*#**#*#*#*#*#*#*#*#*#*#*#*#*#*#*#*#*#*#*#*#*#*#*#*##*#*#*#*#*#*#*#*#*#*#*#*#*#*#*#*#*#*#*#*#*#*#*Oq",
"qqO**#*#*#*#*#*#*#*#*#*#*#*#*#*##*#*#*#*#*#*#*#*#*#*#*#*#*#*#*#*#*#*#*#*#*#*#*#**#*#*#*#*#*#*#*#*#*#*#*#*#*#*#*#*#*#*#*#*#*#**qq",
"qqq*#*#*#*#*#*#*#*#*#*#*#*#*#*#**#*#*#*#*#*#*#*#*#*#*#*#*#*#*#*#*#*#*#*#*#*#*#*##*#*#*#*#*#*#*#*#*#*#*#*#*#*#*#*#*#*#*#*#*#*#Xqq",
"qqqX*#*#*#*#*#*#*#*#*#*#*#*#*#*##*#*#*#*#*#*#*#*#*#*#*#*#*#*#*#*#*#*#*#*#*#*#*#**#*#*#*#*#*#*#*#*#*#*#*#*#*#*#*#*#*#*#*#*##*Oqqq",
"qqqq**#*#*#*#*#*#*#*#*#*#*#*#*#**#*#*#*#*#*#*#*#*#*#*#*#*#*#*#*#*#*#*#*#*#*#*#*##*#*#*#*#*#*#*#*#*#*#*#*#*#*#*#*#*#*#*#*#***qqqq",
"qqqq ****#*#*#*#*#*#*#*#*#*#*#*##*#*#*#*#*#*#*#*#*#*#*#*#*#*#*#*#*#*#*#*#*#*#*#**#*#*#*#*#*#*#*#*#*#*#*#*#*#*#*#*#*#*#*#*#* qqqq",
"qqqqqO**#*#*#*#*#*#*#*#*#*#*#*#**#*#*#*#*#*#*#*#*#*#*#*#*#*#*#*#*#*#*#*#*#*#*#*##*#*#*#*#*#*#*#*#*#*#*#*#*#*#*#*#*#*#*#*#**qqqqq",
"qqqqqq***#***#*#*#*#*#*#*#*#*#*##*#*#*#*#*#*#*#*#*#*#*#*#*#*#*#*#*#*#*#*#*#*#*#**#*#*#*#*#*#*#*#*#*#*#*#*#*#*#*#*#*#*#**&*qqqqqq",
"qqqqqqq X*#X#*#*#*#*#*#*#*#*#*#**#*#*#*#*#*#*#*#*#*#*#*#*#*#*#*#*#*#*#*#*#*#*#*##*#*#*#*#*#*#*#*#*#*#*#*#*#*#*#*#*#*#**OXqqqqqqq",
"qqqqqqqqq***#*#**#*#*#*#*#*#*#*##*#*#*#*#*#*#*#*#*#*#*#*#*#*#*#*#*#*#*#*#*#*#*#**#*#*#*#*#*#*#*#*#*#*#*#*#*#*#*#*#*#*#&qqqqqqqqq",
"qqqqqqqqqqX**#*##*#*#*#*#*#*#*#**#*#*#*#*#*#*#*#*#*#*#*#*#*#*#*#*#*#*#*#*#*#*#*##*#*#*#*#*#*#*#*#*#*#*#*#*#*#*#*#*#**Xqqqqqqqqqq",
"qqqqqqqqqqqqX****#*#*#*#*#*#*#*##*#*#*#*#*#*#*#*#*#*#*#*#*#*#*#*#*#*#*#*#*#*#*#**#*#*#*#*#*#*#*#*#*#*#*#*#*#*#*#***Xqqqqqqqqqqqq",
"qqqqqqqqqqqqqqq*X*#*#*#*#*#*#*#**#*#*#*#*#*#*#*#*#*#*#*#*#*#*#*#*#*#*#*#*#*#*#*##*#*#*#*#*#*#*#*#*#*#*#*#*#*#**X*qqqqqqqqqqqqqqq"
};
