/* XPM */
static char *_____________[] = {
/* columns rows colors chars-per-pixel */
"32 32 23 1 ",
"  c #E28400",
". c #E38500",
"X c #E48400",
"o c #E58500",
"O c #E68500",
"+ c #E68600",
"@ c #E68E14",
"# c #E89737",
"$ c #EBA04F",
"% c #EDA962",
"& c #EEB175",
"* c #F0B885",
"= c #F1C093",
"- c #F3C8A2",
"; c #F4CFAF",
": c #F6D7BC",
"> c #F7DEC8",
", c #F9E5D3",
"< c #FAECDF",
"1 c #FCF2EA",
"2 c #FDF9F5",
"3 c white",
"4 c None",
/* pixels */
"444oooooooooooooooooooooooooo444",
"4 ooooooooooooooooooooooooooooo4",
"4oooooooooooooooooooooooooooooo4",
"oooooooooooooooooooooooooooooooo",
"ooooooooooooooo;;$oooooooooooooo",
"ooooooooooooo#<3331=#o@1$ooooooo",
"oooooooooooo&23333333<<;oooooooo",
"ooooooooooo*3>*=;13333<@oooooooo",
"oooooooooo*3$ooooo&,32#ooooooooo",
"ooooooooo%3-ooooooo@2&oooooooooo",
"ooooooooo13*ooooooo>;ooooooooooo",
"oooooooo*33,@ooooo-2%&*%#ooooooo",
"ooooooo%<3333<13333333333<*ooooo",
"oooooo:3:333333333333333333-oooo",
"ooooo*3:o:3333333<,;--,23333&ooo",
"oooo@13:ooo$%%o=<oooooo@:333,ooo",
"oooo@332=$ooo#&3;--:,:=@o:33<ooo",
"ooooo333333333333333333>o#333ooo",
"ooooo*333333333333333333@o33>ooo",
"oooooo$:133331,,;--&>333$@33&ooo",
"ooooooooooo$2#ooooooo33>o-3,oooo",
"oooooo%=-&%<&ooooooo:32@$2<@oooo",
"oooo*23333331:&ooo$,3;@#<<$ooooo",
"ooo%333333333332:>2:#o%2,@oooooo",
"oo@23>=%-:133333333>=:2=oooooooo",
"oo@3;oooooo&233333333:@ooooooooo",
"ooo><%o@%-<1;##-133:#ooooooooooo",
"ooo@:,3,,-$oooooo$#ooooooooooooo",
"oooooooooooooooooooooooooooooooo",
"4oooooooooooooooooooooooooooooo4",
"4oooooooooooooooooooooooooooooo4",
"444oooooooooooooooooooooooooo444"
};
